<svg xmlns="http://www.w3.org/2000/svg" width="261.464" height="585" viewBox="0 0 261.464 585">
  <g id="Group_6" data-name="Group 6" transform="translate(0 0.001)" opacity="0.285">
    <g id="Group_4" data-name="Group 4" transform="translate(0 10.782)">
      <path id="Path_3" data-name="Path 3" d="M64.167,581.179c-17.293,0-22.162-23.166-23.247-30.31-8.095-53.327,2.189-107.477,12.135-159.843,2.263-11.913,4.551-23.953,6.639-36.074-4.72-24.032-8.642-48.087-9.311-70.646-.262-8.869-.2-17.909-.138-26.65.127-18.292.259-37.163-2.6-55.477-4.009-4.746-8.448-9.161-12.793-13.476A175.57,175.57,0,0,1,19.2,171.714C3.426,151.218-3.2,122.426,1.468,94.7c4.224-25.061,17.52-50.132,37.438-70.6C50.739,11.947,69.7,1.1,84.2,10.547c5.671,3.691,8.874,9.447,10.122,16,14.511,3.7,23.811,19.664,27.72,34.47a120.055,120.055,0,0,1-16.459,96.662,239.163,239.163,0,0,1-15.1,19.3,230.247,230.247,0,0,0-15.271,19.579q.955,3.271,1.8,6.56c7.773,30.257,8.962,64.638,3.742,108.2-1.027,8.581-2.249,17.2-3.6,25.8,2.419,8.191,4.771,16.524,6.733,24.856,14.689,62.35,9.65,128.309,3.775,185.241-2.334,22.6-9.9,33.708-23.124,33.962C64.415,581.179,64.289,581.179,64.167,581.179Zm-3.635-222c-1.9,10.792-3.936,21.517-5.954,32.139-9.921,52.24-20.18,106.257-12.125,159.321,1.038,6.832,5.66,28.995,21.721,28.995.113,0,.225,0,.338,0,12.3-.235,19.374-10.889,21.614-32.573,5.863-56.8,10.892-122.611-3.741-184.725-1.705-7.238-3.708-14.484-5.793-21.642-2.567,15.965-5.537,31.888-8.485,47.517C80.725,448.851,92.414,511,66.5,561.628a8.369,8.369,0,0,1-9.785,4.356c-4.972-1.582-6.055-7.528-6.436-11.863-4.789-54.455,5.559-109.272,15.565-162.285q.339-1.808.682-3.617-.665-3.192-1.329-6.374C63.63,374.331,62.047,366.758,60.532,359.175ZM67.353,392.2c-9.981,52.886-20.3,107.573-15.53,161.788.344,3.894,1.27,9.221,5.362,10.524a6.81,6.81,0,0,0,7.937-3.584C90.27,511.793,79.612,451.409,67.353,392.2Zm-6.084-37.263c1.749,8.893,3.6,17.785,5.446,26.594q.281,1.35.564,2.7c2.914-15.488,5.816-31.239,8.293-47.011q-1.334-4.512-2.677-8.962c-1.775-5.912-3.578-11.91-5.283-17.965C66.064,325.231,63.815,340.137,61.269,354.934ZM49.562,204.513c2.483,17.622,2.356,35.652,2.234,53.154-.062,8.727-.124,17.751.138,26.592.627,21.19,4.147,43.744,8.5,66.365,2.478-14.749,4.622-29.6,6.035-44.461-1.989-7.3-3.8-14.678-5.239-22.088-4.308-22.268-4.359-42.1-.175-59.247a75.357,75.357,0,0,0-7.625-15.017C52.218,207.992,50.922,206.229,49.562,204.513ZM68.036,306.029c2.009,7.351,4.193,14.628,6.343,21.786q.871,2.9,1.749,5.833c1.148-7.516,2.195-15.03,3.092-22.517,5.2-43.366,4.018-77.567-3.707-107.631q-.674-2.625-1.422-5.24c-1.439,2.235-2.79,4.521-4.024,6.87a87.435,87.435,0,0,0-7.4,19.607c6.707,17.983,7.337,37.575,7.071,52.056C69.564,286.524,68.956,296.281,68.036,306.029ZM62.02,227.515c-3.58,16.393-3.343,35.22.73,56.267,1.157,5.988,2.568,11.961,4.122,17.9.7-8.312,1.169-16.623,1.323-24.915C68.447,263.022,67.888,244.637,62.02,227.515Zm-12.909-26a83.9,83.9,0,0,1,5.6,7.443,75.772,75.772,0,0,1,7,13.321A88.077,88.077,0,0,1,68.7,204.408a94.369,94.369,0,0,1,4.823-8.112c-3.194-10.824-7.184-21.493-11.066-31.874-4.972-13.3-10.113-27.048-13.567-41.072-6.411-26.029-5.177-49.757,3.137-68.235-.265.191-.528.387-.787.59-9.356,7.333-16.6,18.687-19.887,31.151-4.08,15.5-3.307,33.285,2.432,55.987,1.77,7,3.866,14.051,5.894,20.871,3.31,11.129,6.732,22.638,8.835,34.271Q48.832,199.743,49.111,201.511ZM71.882,8.505c-11.295,0-23.428,8.01-31.864,16.676C20.316,45.422,7.169,70.2,3,94.954c-4.6,27.313,1.915,55.655,17.437,75.815a174.009,174.009,0,0,0,15.516,16.837c3.776,3.753,7.629,7.581,11.216,11.645-.057-.33-.115-.66-.175-.99-2.09-11.549-5.5-23.014-8.795-34.1-2.032-6.834-4.134-13.9-5.909-20.933-5.807-22.965-6.578-41-2.429-56.761,3.367-12.784,10.812-24.439,20.428-31.977a24.268,24.268,0,0,1,3-2.009A63.963,63.963,0,0,1,65.708,35.313,32.841,32.841,0,0,1,82.95,26.187a27.307,27.307,0,0,1,9.687-.012c-1.5-6.467-4.906-11.485-9.278-14.331A20.65,20.65,0,0,0,71.882,8.505ZM54.454,53.6c-9.078,18.448-10.638,42.666-4.06,69.381,3.432,13.937,8.556,27.644,13.515,40.9,3.745,10.016,7.591,20.3,10.736,30.753,4.494-6.552,9.631-12.672,14.655-18.652a238.157,238.157,0,0,0,15.006-19.168,118.483,118.483,0,0,0,16.244-95.4c-3.721-14.1-12.443-29.3-25.943-33.171,1.134,8.228-.621,17.5-4.3,25.46-1.1,2.385-2.333,4.735-3.621,7.048a71.931,71.931,0,0,1,18.685,41.4,72.327,72.327,0,0,1-14.557,50.014,12.443,12.443,0,0,1-12.945,4.619,12.621,12.621,0,0,1-9.6-10.1c-1.685-9.1-.5-19.317.713-27.206a59.145,59.145,0,0,1,1.49-7.481c-2.582-4.432-3.268-10.448-1.925-17.147,1.978-9.861,7.22-18.64,12.288-27.131,1.321-2.21,2.661-4.458,3.953-6.736q-2.21-2.333-4.631-4.467A22.638,22.638,0,0,0,54.454,53.6Zm17.166,60.1c-.5,2.018-.812,4.072-1.111,6.013-1.2,7.768-2.362,17.821-.722,26.688a11.093,11.093,0,0,0,8.44,8.879,10.913,10.913,0,0,0,11.355-4.051,70.756,70.756,0,0,0,14.246-48.928A70.335,70.335,0,0,0,85.883,62.169c-1.222,2.142-2.483,4.255-3.725,6.337-5,8.378-10.172,17.042-12.1,26.64-1.142,5.7-.75,10.838,1.086,14.8A18.872,18.872,0,0,1,73.5,105.5a12.717,12.717,0,0,1,8.793-5.192,8.384,8.384,0,0,1,6.73,2.3,9.741,9.741,0,0,1,3.059,7.486,9.017,9.017,0,0,1-3.48,6.741h0a10.448,10.448,0,0,1-8,1.972A14.06,14.06,0,0,1,71.619,113.693Zm.533-1.919c.138.212.279.418.424.621a12.614,12.614,0,0,0,8.239,4.879,8.9,8.9,0,0,0,6.828-1.654h0a7.484,7.484,0,0,0,2.892-5.6,8.2,8.2,0,0,0-2.579-6.293,6.869,6.869,0,0,0-5.522-1.882,11.289,11.289,0,0,0-7.68,4.56A18.582,18.582,0,0,0,72.152,111.774ZM65.22,49.33a24.094,24.094,0,0,1,15.953,6.015q2.293,2.019,4.4,4.218c1.186-2.144,2.314-4.315,3.327-6.51,4.34-9.4,5.325-18.09,4.074-25.217a25.431,25.431,0,0,0-9.758-.121,31.29,31.29,0,0,0-16.425,8.707A61.964,61.964,0,0,0,55.635,51.3,24.222,24.222,0,0,1,65.22,49.33Z" transform="translate(0 -6.961)" fill="#fff"/>
    </g>
    <g id="Group_5" data-name="Group 5" transform="translate(172.182 -0.001)">
      <path id="Path_4" data-name="Path 4" d="M170.287,582.838c-8.471,0-16.442-7-21.083-14.872-9.587-16.267-11.052-36.092-11.73-55a1111.181,1111.181,0,0,1,7.8-176.725l.852-6.75c4.718-37.226,9.6-75.718-6.242-109a195.118,195.118,0,0,0-10.262-18.072c-6.3-10.237-12.824-20.823-15.463-32.75-2.618-11.825-1.228-24.091.116-35.951.528-4.656,1.073-9.472,1.368-14.181.94-15.136-.613-30.883-2.116-46.112-2.3-23.309-4.681-47.412,2.024-69.313a5.824,5.824,0,0,1,11.371,1.239,32.419,32.419,0,0,1,.019,3.3,64.179,64.179,0,0,0,.33,9.449c2.4,19.718,4.923,36.881,7.365,53.478S139.6,105.337,142,125.063c.366,3.014,1.059,4.921,3.381,5.122a3.877,3.877,0,0,0,3.044-1.075,4.406,4.406,0,0,0,1.323-3.384L144.975,17.578c-.152-3.412.8-7.983,3.242-9.955A4.442,4.442,0,0,1,152.28,6.8a6.113,6.113,0,0,1,4.421,5.635l7.048,111.613a4.207,4.207,0,0,0,3.519,3.976,4.285,4.285,0,0,0,4.777-2.528c6.022-13.375,6.984-30.725,3.03-54.6-.327-1.97-.666-3.954-1-5.946-2.982-17.472-6.064-35.539-2.454-52.277a4.045,4.045,0,0,1,7.938.239L197.9,125.658c2.941,18.092,4.9,35.514-3.335,49.827-3.265,5.672-7.946,10.366-12.472,14.906-2.554,2.562-5.175,5.191-7.536,7.993l-11.5,79.254a735.441,735.441,0,0,1,19.71,133.25c.73,13.206.858,26.653-1.484,39.159,5.957,27.805,10.765,56.247,7.488,84.523-.573,4.941-1.541,10.609-3.838,15.674a27.593,27.593,0,0,1,2.46,9.6c.615,8.9-3.711,19.782-12.946,22.409A15.051,15.051,0,0,1,170.287,582.838ZM121.086,1.549a4.089,4.089,0,0,0-4.054,3.016c-6.616,21.6-4.252,45.549-1.966,68.707,1.51,15.29,3.07,31.1,2.121,46.36-.294,4.748-.844,9.583-1.374,14.26-1.331,11.735-2.706,23.869-.144,35.443,2.584,11.671,9.033,22.144,15.27,32.271a195.839,195.839,0,0,1,10.341,18.217c16.036,33.691,11.128,72.414,6.382,109.86l-.852,6.749a1109.37,1109.37,0,0,0-7.788,176.479c.671,18.711,2.113,38.315,11.516,54.271,5.093,8.642,14.332,16.185,23.484,13.586,8.45-2.407,12.4-12.519,11.825-20.815a26.074,26.074,0,0,0-1.812-7.889,23.425,23.425,0,0,1-5.7,7.088,17.378,17.378,0,0,1-17.012,2.494,11.021,11.021,0,0,1-7.169-9.359,12.288,12.288,0,0,1,2.9-9.24,13.969,13.969,0,0,1,9.715-4.834c7.734-.491,13.736,3.968,17.254,10.236a54.233,54.233,0,0,0,3.214-14.057c3.118-26.882-1.151-54-6.735-80.587A68.8,68.8,0,0,1,174,471.28c4.647,9.108,8.07,18.592,7.418,28.823-.426,6.676-4.19,13.727-9.151,17.149a11.609,11.609,0,0,1-10.293,1.8,11.91,11.91,0,0,1-7.24-6.549,20.408,20.408,0,0,1-.313-15.652c2.13-5.327,5.857-9.779,9.461-14.085,1.744-2.083,3.547-4.235,5.135-6.451a55.2,55.2,0,0,0,3.223-5.059c-2.072-4-4.374-7.938-6.651-11.834a191.563,191.563,0,0,1-9.249-17.111c-14.207-31.261-8.834-68.3-4.517-98.056l6.166-42.506q-.771-19.652-.41-39.32-5.109-19.164-11.253-38.045c-4.216-12.959-7.378-27.4.871-36.678-7.624-9.72-8.75-17.6-7.763-23.254a17.3,17.3,0,0,1-3.422-2.9c-7.4-8.188-8.384-20.521-9.1-29.526-.359-4.49-.723-8.854-1.078-13.117-2.966-35.62-5.31-63.761-.116-100.738a66.256,66.256,0,0,1-.327-9.56,30.842,30.842,0,0,0-.014-3.138,4.142,4.142,0,0,0-3.8-3.9C121.416,1.557,121.251,1.549,121.086,1.549Zm46.856,538.175q-.532,0-1.075.036a12.4,12.4,0,0,0-8.635,4.289,10.766,10.766,0,0,0-2.539,8.086,9.539,9.539,0,0,0,6.217,8.081,15.986,15.986,0,0,0,15.438-2.257,22.49,22.49,0,0,0,5.872-7.709C180.22,544.23,174.865,539.724,167.942,539.724Zm5.139-66.82q-1.3,2.2-2.805,4.311c-1.622,2.263-3.445,4.439-5.206,6.546-3.527,4.212-7.173,8.566-9.212,13.663a18.791,18.791,0,0,0,.276,14.411,10.4,10.4,0,0,0,6.3,5.736,10.114,10.114,0,0,0,8.956-1.591c4.6-3.171,8.087-9.738,8.485-15.973C180.48,490.481,177.384,481.533,173.081,472.9ZM158.366,309.963l-5.006,34.514c-4.289,29.559-9.625,66.346,4.393,97.192a190.975,190.975,0,0,0,9.176,16.97c2.113,3.617,4.247,7.265,6.207,10.974a70.484,70.484,0,0,0,6.568-19.551c-1.117-5.2-2.272-10.384-3.422-15.538-1.577-7.065-3.2-14.367-4.689-21.537A681.089,681.089,0,0,1,158.366,309.963Zm1.18-8.134a679.962,679.962,0,0,0,13.561,110.845c1.482,7.158,3.11,14.456,4.684,21.515q1.306,5.853,2.6,11.752c1.645-11.262,1.473-23.208.826-34.966a733.777,733.777,0,0,0-18.764-129.2Zm-.5-33.8q-.128,12.509.206,25.019l2.226-15.333Q160.3,272.861,159.051,268.027Zm.084-5.787q1.515,5.692,2.937,11.4l10.57-72.86c-.115.152-.228.305-.341.459-10.86,14.779-12.367,34.438-12.929,51.706Q159.222,257.59,159.134,262.24Zm-10.359-73.958c-8.251,8.66-5.122,22.866-.971,35.62q5.342,16.413,9.9,33.047.053-2.031.119-4.057c.568-17.5,2.107-37.437,13.228-52.572q.976-1.327,2.032-2.593l3.459-23.849c1.239-8.533,2.52-17.356.64-25.9-2.038-9.267-8.132-16.589-15.525-18.656a15.77,15.77,0,0,0-13.183,2.6,11.7,11.7,0,0,0-5.178,8.961,9.288,9.288,0,0,0,3.609,7.37,12.632,12.632,0,0,0,2.878,1.809,17.027,17.027,0,0,1,5.739-2.1,2.292,2.292,0,0,1,2.626,1.89,2.166,2.166,0,0,1-1.7,2.584,11.544,11.544,0,0,1-6.566-.643,19.749,19.749,0,0,0-7.946,9.447,18.384,18.384,0,0,0-.764,2.474c4.814,2.763,11.06,3.42,15.719,1.287a7.421,7.421,0,0,1,9.131,2.336,6.886,6.886,0,0,1-.189,8.871c-.2.232-.4.455-.616.669a37.629,37.629,0,0,1-8.223,5.663c-3.044,1.718-5.917,3.341-8.206,5.739C148.783,188.273,148.778,188.277,148.775,188.282Zm9.16-61.009a15.414,15.414,0,0,1,4.142.553c7.937,2.218,14.461,10,16.62,19.814,1.941,8.824.581,18.194-.618,26.461l-3.113,21.456c1.95-2.167,4.009-4.233,6.029-6.258,4.455-4.469,9.063-9.089,12.226-14.585,7.983-13.871,6.046-31,3.151-48.806L178.025,13.157a2.431,2.431,0,0,0-2.419-2.1A2.367,2.367,0,0,0,173.127,13c-3.546,16.444-.488,34.362,2.467,51.689q.511,2.993,1.005,5.956c4.007,24.193,3.007,41.826-3.144,55.491a5.863,5.863,0,0,1-6.468,3.417,5.706,5.706,0,0,1-4.788-5.4L155.152,12.533A4.632,4.632,0,0,0,151.884,8.3a2.88,2.88,0,0,0-2.7.533c-1.933,1.561-2.805,5.55-2.666,8.682l4.772,108.148a6.038,6.038,0,0,1-.785,3.274A17.791,17.791,0,0,1,157.935,127.273ZM140.875,165.3c-.74,5.228.5,12.406,7.412,21.281a38.826,38.826,0,0,1,7.945-5.4,36.457,36.457,0,0,0,7.9-5.415q.272-.27.522-.567a5.405,5.405,0,0,0,.141-6.936,5.9,5.9,0,0,0-7.254-1.865C152.6,168.657,146.05,168.066,140.875,165.3Zm-14.4-140.99c-4.137,33.955-1.9,60.882.9,94.477.355,4.264.719,8.629,1.076,13.121.878,10.97,2.206,21.41,8.711,28.612a15.751,15.751,0,0,0,2.625,2.311,19.844,19.844,0,0,1,.7-2.159,21.246,21.246,0,0,1,7.753-9.647,14.315,14.315,0,0,1-2.333-1.592,10.824,10.824,0,0,1-4.164-8.618,12.843,12.843,0,0,1,4.5-9.085,5.377,5.377,0,0,1-1,0c-4.041-.349-4.545-4.487-4.785-6.478-2.4-19.707-4.921-36.859-7.362-53.447C130.908,56.909,128.649,41.557,126.474,24.308Zm25.29,126.447a9.5,9.5,0,0,0,4.354.16.623.623,0,0,0,.51-.788.755.755,0,0,0-.87-.643A14.666,14.666,0,0,0,151.764,150.755Z" transform="translate(-111.16 0.001)" fill="#fff"/>
    </g>
  </g>
</svg>
